<svg width="39" height="39" viewBox="0 0 39 39" fill="none" xmlns="http://www.w3.org/2000/svg">
<path d="M11.7382 12.127C8.76864 14.0642 6.80589 17.4162 6.80589 21.2206C6.80589 21.45 6.81226 21.6858 6.82501 21.9088C6.96521 25.6049 8.53285 28.9441 10.999 31.3784C13.5544 33.9083 17.0721 35.4632 20.9466 35.4377C22.8074 35.425 24.5853 35.0554 26.2039 34.3799C23.7441 35.9794 20.8064 36.9098 17.6583 36.9098C11.8338 36.9098 6.74217 33.7299 4.03383 29.0078C3.86815 28.6191 3.72158 28.224 3.6005 27.8225C3.23089 26.6181 3.03334 25.3372 3.03972 24.0118C3.05883 20.5387 4.48628 17.4034 6.77403 15.1412C8.15687 13.7774 9.85197 12.7323 11.7382 12.127Z" fill="black"/>
<path d="M15.8931 29.7662C19.0539 31.372 22.9348 31.4103 26.2358 29.5113C26.4397 29.3966 26.6309 29.2755 26.822 29.148C29.9573 27.1853 32.073 24.1647 32.9588 20.8127C33.8765 17.3397 33.475 13.5162 31.5314 10.1642C30.5946 8.55194 29.3838 7.20096 27.9946 6.13037C30.6073 7.46861 32.876 9.54606 34.4436 12.2799C37.3431 17.3333 37.1201 23.3299 34.3735 28.0328C34.1186 28.3706 33.851 28.6892 33.5578 29.0015C32.6975 29.9255 31.6907 30.7348 30.5309 31.3848C27.5103 33.0926 24.0819 33.4176 20.9784 32.5637C19.1113 32.0475 17.3588 31.1044 15.8931 29.7662Z" fill="black"/>
<path d="M29.0142 17.2504C28.8358 13.7073 26.9368 10.3235 23.6485 8.40535C23.451 8.29064 23.2471 8.17594 23.0431 8.07398C19.7804 6.3279 16.1098 6.0029 12.7642 6.90143C9.29118 7.83182 6.175 10.0813 4.23775 13.4397C3.30736 15.0519 2.73383 16.7725 2.49167 18.5122C2.35148 15.5808 3.02697 12.5794 4.6201 9.85829C7.55785 4.82398 12.8789 2.03917 18.3211 2.08378C18.7353 2.13476 19.1559 2.21123 19.5637 2.30682C20.7936 2.59358 21.998 3.06515 23.1387 3.74701C26.1275 5.51858 28.1157 8.32888 28.9123 11.4514C29.3902 13.325 29.4412 15.3132 29.0142 17.2504Z" fill="black"/>
</svg>
